<svg xmlns="http://www.w3.org/2000/svg" width="20" height="16" viewBox="0 0 14 11">
    <path fill="#FFF" fill-rule="evenodd" d="M13.806 5.806L9.14 10.473C8.723 10.89 8 10.598 8 10.001V7.334H4.222c-.369 0-.666-.297-.666-.666V4c0-.37.297-.667.666-.667H8V.667c0-.594.72-.889 1.14-.472l4.666 4.667c.259.261.259.683 0 .944zm-8.472 4.528c0 .184-.15.334-.334.334H2.667C1.195 10.668 0 9.473 0 8V2.667C0 1.195 1.195.001 2.667.001H5c.184 0 .334.15.334.333v1.111c0 .183-.15.333-.334.333H2.667c-.492 0-.89.398-.89.89V8c0 .492.398.889.89.889H5c.184 0 .334.15.334.333v1.111z"/>
</svg>
