<svg xmlns="http://www.w3.org/2000/svg" width="18" height="18" viewBox="0 0 14 11">
    <path fill-rule="evenodd" d="M10.85 8.375c-.175 0-.35-.175-.35-.35v-6.3c0-.175.175-.35.35-.35h.612c.175 0 .35.175.35.35v6.3c0 .175-.175.35-.35.35h-.612zm-5.25 0c-.175 0-.35-.175-.35-.35V2.6c0-.175.175-.35.35-.35h.612c.175 0 .35.175.35.35v5.425c0 .175-.175.35-.35.35H5.6zm2.625 0c-.175 0-.35-.175-.35-.35V4.35c0-.175.175-.35.35-.35h.612c.175 0 .35.175.35.35v3.675c0 .175-.175.35-.35.35h-.612zm5.337 1.313c.242 0 .438.195.438.437v.438c0 .241-.196.437-.438.437H.875C.392 11 0 10.608 0 10.125V.938C0 .696.196.5.437.5h.438c.242 0 .437.196.437.438v8.75h12.25zM2.975 8.375c-.175 0-.35-.175-.35-.35V6.1c0-.175.175-.35.35-.35h.612c.175 0 .35.175.35.35v1.925c0 .175-.175.35-.35.35h-.612z"/>
</svg>
