<svg xmlns="http://www.w3.org/2000/svg" width="18" height="18" viewBox="0 0 18 18">
    <path fill-rule="evenodd" d="M9 .531c4.816 0 8.719 3.903 8.719 8.719 0 4.816-3.903 8.719-8.719 8.719-4.816 0-8.719-3.903-8.719-8.719C.281 4.434 4.184.531 9 .531zm0 15.75c3.885 0 7.031-3.146 7.031-7.031S12.885 2.219 9 2.219 1.969 5.365 1.969 9.25 5.115 16.281 9 16.281zm2.173-3.67l-2.985-2.17c-.11-.08-.172-.207-.172-.34V4.328c0-.232.19-.422.421-.422h1.125c.232 0 .422.19.422.422V9.31l2.349 1.708c.19.137.228.401.091.591l-.66.91c-.138.187-.402.23-.591.092z"/>
</svg>
